<svg xmlns="http://www.w3.org/2000/svg" version="1.1" data-icon="transfer" data-container-transform="translate(0 7)" fill="#FFFFFF" viewBox="0 0 32 40" x="0px" y="0px">
<path d="M26.125.219c-.075.037-.125.131-.125.281v2.5h-26v3h26v2.5c0 .3.206.387.406.188l5.188-3.875c.2-.2.2-.425 0-.625l-5.188-3.875c-.1-.1-.206-.131-.281-.094zm-20.375 9c-.047.014-.106.044-.156.094l-5.188 3.875c-.2.2-.2.425 0 .625l5.188 3.875c.2.2.406.113.406-.188v-2.5h26v-3h-26v-2.5c0-.225-.109-.323-.25-.281z" transform="translate(0 7)"/></svg>